<svg xmlns="http://www.w3.org/2000/svg" version="1.1" xmlns:xlink="http://www.w3.org/1999/xlink" xmlns:svgjs="http://svgjs.dev/svgjs" width="1000" height="1000"><style>
    #light-icon {
      display: inline;
    }
    #dark-icon {
      display: none;
    }

    @media (prefers-color-scheme: dark) {
      #light-icon {
        display: none;
      }
      #dark-icon {
        display: inline;
      }
    }
  </style><g id="light-icon"><svg xmlns="http://www.w3.org/2000/svg" version="1.1" xmlns:xlink="http://www.w3.org/1999/xlink" xmlns:svgjs="http://svgjs.dev/svgjs" width="1000" height="1000"><g clip-path="url(#SvgjsClipPath1070)"><rect width="1000" height="1000" fill="#ffffff"></rect><g transform="matrix(31.25,0,0,31.25,0,0)"><svg xmlns="http://www.w3.org/2000/svg" version="1.1" xmlns:xlink="http://www.w3.org/1999/xlink" xmlns:svgjs="http://svgjs.dev/svgjs" width="32" height="32"><svg xmlns="http://www.w3.org/2000/svg" viewBox="0 0 32 32">
  <rect width="32" height="32" rx="6" fill="#1E293B"></rect>
  <path d="M8 10 C14 10, 18 14, 24 14" stroke="#64748B" stroke-width="2" fill="none"></path>
  <path d="M8 18 C14 18, 18 22, 24 22" stroke="#64748B" stroke-width="2" fill="none"></path>
  <rect x="10" y="8" width="8" height="4" rx="2" fill="#3B82F6"></rect>
  <rect x="14" y="20" width="8" height="4" rx="2" fill="#EF4444"></rect>
  <circle cx="14" cy="10" r="2" fill="#FFFFFF"></circle>
  <circle cx="18" cy="22" r="2" fill="#FFFFFF"></circle>
</svg></svg></g></g><defs><clipPath id="SvgjsClipPath1070"><rect width="1000" height="1000" x="0" y="0" rx="300" ry="300"></rect></clipPath></defs></svg></g><g id="dark-icon"><svg xmlns="http://www.w3.org/2000/svg" version="1.1" xmlns:xlink="http://www.w3.org/1999/xlink" xmlns:svgjs="http://svgjs.dev/svgjs" width="1000" height="1000"><g><g transform="matrix(31.25,0,0,31.25,0,0)" style="filter: invert(100%)"><svg xmlns="http://www.w3.org/2000/svg" version="1.1" xmlns:xlink="http://www.w3.org/1999/xlink" xmlns:svgjs="http://svgjs.dev/svgjs" width="32" height="32"><svg xmlns="http://www.w3.org/2000/svg" viewBox="0 0 32 32">
  <rect width="32" height="32" rx="6" fill="#1E293B"></rect>
  <path d="M8 10 C14 10, 18 14, 24 14" stroke="#64748B" stroke-width="2" fill="none"></path>
  <path d="M8 18 C14 18, 18 22, 24 22" stroke="#64748B" stroke-width="2" fill="none"></path>
  <rect x="10" y="8" width="8" height="4" rx="2" fill="#3B82F6"></rect>
  <rect x="14" y="20" width="8" height="4" rx="2" fill="#EF4444"></rect>
  <circle cx="14" cy="10" r="2" fill="#FFFFFF"></circle>
  <circle cx="18" cy="22" r="2" fill="#FFFFFF"></circle>
</svg></svg></g></g></svg></g></svg>